<mxfile host="app.diagrams.net" modified="2023-04-06T16:30:44.151Z" agent="Mozilla/5.0 (Windows NT 10.0; Win64; x64) AppleWebKit/537.36 (KHTML, like Gecko) Chrome/111.0.0.0 Safari/537.36 Edg/111.0.1661.62" etag="flerNduNoHr7eHIiPYqq" version="21.1.2" type="device">
  <diagram name="ページ1" id="TGUpAwlxH3T68AW6wCHu">
    <mxGraphModel dx="1391" dy="804" grid="1" gridSize="10" guides="1" tooltips="1" connect="1" arrows="1" fold="1" page="1" pageScale="1" pageWidth="827" pageHeight="1169" math="0" shadow="0">
      <root>
        <mxCell id="0" />
        <mxCell id="1" parent="0" />
        <mxCell id="qMLqG99t2fuoDBiXMfYf-52" style="edgeStyle=none;curved=1;rounded=0;orthogonalLoop=1;jettySize=auto;html=1;fontSize=12;strokeColor=default;endArrow=none;endFill=0;dashed=1;" edge="1" parent="1" source="qMLqG99t2fuoDBiXMfYf-103" target="qMLqG99t2fuoDBiXMfYf-50">
          <mxGeometry relative="1" as="geometry">
            <mxPoint x="267" y="660" as="sourcePoint" />
          </mxGeometry>
        </mxCell>
        <mxCell id="qMLqG99t2fuoDBiXMfYf-50" value="" style="html=1;points=[];perimeter=orthogonalPerimeter;outlineConnect=0;targetShapes=umlLifeline;portConstraint=eastwest;newEdgeStyle={&quot;edgeStyle&quot;:&quot;elbowEdgeStyle&quot;,&quot;elbow&quot;:&quot;vertical&quot;,&quot;curved&quot;:0,&quot;rounded&quot;:0};fontSize=16;" vertex="1" parent="1">
          <mxGeometry x="262" y="680" width="10" height="320" as="geometry" />
        </mxCell>
        <mxCell id="qMLqG99t2fuoDBiXMfYf-51" value="root.render()" style="html=1;verticalAlign=bottom;startArrow=oval;endArrow=block;startSize=8;edgeStyle=elbowEdgeStyle;elbow=vertical;curved=0;rounded=0;fontSize=12;" edge="1" target="qMLqG99t2fuoDBiXMfYf-50" parent="1">
          <mxGeometry x="0.0018" relative="1" as="geometry">
            <mxPoint x="167" y="700" as="sourcePoint" />
            <Array as="points">
              <mxPoint x="242" y="700" />
              <mxPoint x="162" y="720" />
            </Array>
            <mxPoint as="offset" />
          </mxGeometry>
        </mxCell>
        <mxCell id="qMLqG99t2fuoDBiXMfYf-64" style="edgeStyle=none;curved=1;rounded=0;orthogonalLoop=1;jettySize=auto;html=1;fontSize=12;startSize=8;endSize=8;endArrow=none;endFill=0;dashed=1;" edge="1" parent="1" source="qMLqG99t2fuoDBiXMfYf-104" target="qMLqG99t2fuoDBiXMfYf-80">
          <mxGeometry relative="1" as="geometry">
            <mxPoint x="416" y="770" as="targetPoint" />
            <mxPoint x="423.6651835372636" y="740.05" as="sourcePoint" />
          </mxGeometry>
        </mxCell>
        <mxCell id="qMLqG99t2fuoDBiXMfYf-80" value="" style="html=1;points=[];perimeter=orthogonalPerimeter;outlineConnect=0;targetShapes=umlLifeline;portConstraint=eastwest;newEdgeStyle={&quot;edgeStyle&quot;:&quot;elbowEdgeStyle&quot;,&quot;elbow&quot;:&quot;vertical&quot;,&quot;curved&quot;:0,&quot;rounded&quot;:0};fontSize=16;" vertex="1" parent="1">
          <mxGeometry x="409" y="740" width="10" height="230" as="geometry" />
        </mxCell>
        <mxCell id="qMLqG99t2fuoDBiXMfYf-81" value=".render()" style="html=1;verticalAlign=bottom;endArrow=block;edgeStyle=elbowEdgeStyle;elbow=vertical;curved=0;rounded=0;fontSize=12;startSize=8;endSize=8;entryX=0;entryY=0.5;entryDx=0;entryDy=0;" edge="1" target="qMLqG99t2fuoDBiXMfYf-104" parent="1" source="qMLqG99t2fuoDBiXMfYf-50">
          <mxGeometry x="-0.0044" relative="1" as="geometry">
            <mxPoint x="300" y="720" as="sourcePoint" />
            <Array as="points">
              <mxPoint x="370" y="725" />
              <mxPoint x="300" y="720" />
            </Array>
            <mxPoint as="offset" />
          </mxGeometry>
        </mxCell>
        <mxCell id="qMLqG99t2fuoDBiXMfYf-82" value="JSX.Element" style="html=1;verticalAlign=bottom;endArrow=open;dashed=1;endSize=8;edgeStyle=elbowEdgeStyle;elbow=vertical;curved=0;rounded=0;fontSize=12;" edge="1" source="qMLqG99t2fuoDBiXMfYf-80" parent="1" target="qMLqG99t2fuoDBiXMfYf-50">
          <mxGeometry relative="1" as="geometry">
            <mxPoint x="300" y="795" as="targetPoint" />
            <Array as="points">
              <mxPoint x="390" y="970" />
              <mxPoint x="350" y="890" />
              <mxPoint x="360" y="880" />
            </Array>
          </mxGeometry>
        </mxCell>
        <mxCell id="qMLqG99t2fuoDBiXMfYf-83" value="" style="html=1;points=[];perimeter=orthogonalPerimeter;outlineConnect=0;targetShapes=umlLifeline;portConstraint=eastwest;newEdgeStyle={&quot;edgeStyle&quot;:&quot;elbowEdgeStyle&quot;,&quot;elbow&quot;:&quot;vertical&quot;,&quot;curved&quot;:0,&quot;rounded&quot;:0};fontSize=16;" vertex="1" parent="1">
          <mxGeometry x="752" y="830" width="10" height="80" as="geometry" />
        </mxCell>
        <mxCell id="qMLqG99t2fuoDBiXMfYf-88" value="" style="html=1;points=[];perimeter=orthogonalPerimeter;outlineConnect=0;targetShapes=umlLifeline;portConstraint=eastwest;newEdgeStyle={&quot;edgeStyle&quot;:&quot;elbowEdgeStyle&quot;,&quot;elbow&quot;:&quot;vertical&quot;,&quot;curved&quot;:0,&quot;rounded&quot;:0};fontSize=16;" vertex="1" parent="1">
          <mxGeometry x="602" y="780" width="10" height="150" as="geometry" />
        </mxCell>
        <mxCell id="qMLqG99t2fuoDBiXMfYf-89" value=".render(squares,onClick)" style="html=1;verticalAlign=bottom;endArrow=block;edgeStyle=elbowEdgeStyle;elbow=vertical;curved=0;rounded=0;fontSize=12;startSize=8;endSize=8;" edge="1" target="qMLqG99t2fuoDBiXMfYf-105" parent="1" source="qMLqG99t2fuoDBiXMfYf-80">
          <mxGeometry x="-0.0067" relative="1" as="geometry">
            <mxPoint x="431" y="740.1" as="sourcePoint" />
            <mxPoint x="490" y="780" as="targetPoint" />
            <Array as="points">
              <mxPoint x="500" y="770" />
            </Array>
            <mxPoint as="offset" />
          </mxGeometry>
        </mxCell>
        <mxCell id="qMLqG99t2fuoDBiXMfYf-90" value="JSX.Element" style="html=1;verticalAlign=bottom;endArrow=open;dashed=1;endSize=8;edgeStyle=elbowEdgeStyle;elbow=vertical;curved=0;rounded=0;fontSize=12;" edge="1" source="qMLqG99t2fuoDBiXMfYf-88" parent="1" target="qMLqG99t2fuoDBiXMfYf-80">
          <mxGeometry relative="1" as="geometry">
            <mxPoint x="431" y="815.1" as="targetPoint" />
            <Array as="points">
              <mxPoint x="530" y="930" />
              <mxPoint x="520" y="890" />
              <mxPoint x="550" y="930" />
              <mxPoint x="481" y="870" />
            </Array>
          </mxGeometry>
        </mxCell>
        <mxCell id="qMLqG99t2fuoDBiXMfYf-97" style="edgeStyle=none;curved=1;rounded=0;orthogonalLoop=1;jettySize=auto;html=1;fontSize=12;startSize=8;endSize=8;endArrow=none;endFill=0;dashed=1;" edge="1" parent="1" source="qMLqG99t2fuoDBiXMfYf-83">
          <mxGeometry relative="1" as="geometry">
            <mxPoint x="757" y="1040" as="targetPoint" />
            <mxPoint x="756.76" y="940" as="sourcePoint" />
          </mxGeometry>
        </mxCell>
        <mxCell id="qMLqG99t2fuoDBiXMfYf-100" style="edgeStyle=none;curved=1;rounded=0;orthogonalLoop=1;jettySize=auto;html=1;fontSize=12;startSize=8;endSize=8;endArrow=none;endFill=0;dashed=1;" edge="1" parent="1" source="qMLqG99t2fuoDBiXMfYf-88">
          <mxGeometry relative="1" as="geometry">
            <mxPoint x="607" y="1040" as="targetPoint" />
            <mxPoint x="606.76" y="949.95" as="sourcePoint" />
          </mxGeometry>
        </mxCell>
        <mxCell id="qMLqG99t2fuoDBiXMfYf-101" style="edgeStyle=none;curved=1;rounded=0;orthogonalLoop=1;jettySize=auto;html=1;fontSize=12;startSize=8;endSize=8;endArrow=none;endFill=0;dashed=1;" edge="1" parent="1" source="qMLqG99t2fuoDBiXMfYf-80">
          <mxGeometry relative="1" as="geometry">
            <mxPoint x="415" y="1040" as="targetPoint" />
            <mxPoint x="415" y="970" as="sourcePoint" />
          </mxGeometry>
        </mxCell>
        <mxCell id="qMLqG99t2fuoDBiXMfYf-102" style="edgeStyle=none;curved=1;rounded=0;orthogonalLoop=1;jettySize=auto;html=1;fontSize=12;startSize=8;endSize=8;endArrow=none;endFill=0;dashed=1;" edge="1" parent="1" source="qMLqG99t2fuoDBiXMfYf-50">
          <mxGeometry relative="1" as="geometry">
            <mxPoint x="266.76" y="1040" as="targetPoint" />
            <mxPoint x="266.76" y="970" as="sourcePoint" />
          </mxGeometry>
        </mxCell>
        <mxCell id="qMLqG99t2fuoDBiXMfYf-103" value=":index" style="html=1;whiteSpace=wrap;fontSize=12;" vertex="1" parent="1">
          <mxGeometry x="234" y="630" width="66" height="30" as="geometry" />
        </mxCell>
        <mxCell id="qMLqG99t2fuoDBiXMfYf-104" value=":Game" style="html=1;whiteSpace=wrap;fontSize=12;" vertex="1" parent="1">
          <mxGeometry x="381" y="710.05" width="66" height="30" as="geometry" />
        </mxCell>
        <mxCell id="qMLqG99t2fuoDBiXMfYf-115" value="" style="edgeStyle=none;curved=1;rounded=0;orthogonalLoop=1;jettySize=auto;html=1;fontSize=12;startSize=8;endSize=8;" edge="1" parent="1" source="qMLqG99t2fuoDBiXMfYf-105" target="qMLqG99t2fuoDBiXMfYf-88">
          <mxGeometry relative="1" as="geometry" />
        </mxCell>
        <mxCell id="qMLqG99t2fuoDBiXMfYf-105" value=":Board" style="html=1;whiteSpace=wrap;fontSize=12;" vertex="1" parent="1">
          <mxGeometry x="570" y="750" width="74" height="30" as="geometry" />
        </mxCell>
        <mxCell id="qMLqG99t2fuoDBiXMfYf-106" value="&lt;font style=&quot;font-size: 12px;&quot;&gt;:Square&lt;/font&gt;" style="html=1;whiteSpace=wrap;fontSize=16;" vertex="1" parent="1">
          <mxGeometry x="710" y="630" width="94" height="30" as="geometry" />
        </mxCell>
        <mxCell id="qMLqG99t2fuoDBiXMfYf-107" value="JSX.Element" style="html=1;verticalAlign=bottom;endArrow=open;dashed=1;endSize=8;edgeStyle=elbowEdgeStyle;elbow=vertical;curved=0;rounded=0;fontSize=12;" edge="1" parent="1" source="qMLqG99t2fuoDBiXMfYf-83" target="qMLqG99t2fuoDBiXMfYf-88">
          <mxGeometry x="0.0041" relative="1" as="geometry">
            <mxPoint x="597" y="930" as="targetPoint" />
            <mxPoint x="705" y="930" as="sourcePoint" />
            <Array as="points">
              <mxPoint x="704" y="910" />
              <mxPoint x="650" y="930" />
            </Array>
            <mxPoint as="offset" />
          </mxGeometry>
        </mxCell>
        <mxCell id="qMLqG99t2fuoDBiXMfYf-108" value="Square(value, onclick)" style="html=1;verticalAlign=bottom;endArrow=block;elbow=vertical;rounded=0;fontSize=12;startSize=8;endSize=8;" edge="1" parent="1" source="qMLqG99t2fuoDBiXMfYf-88" target="qMLqG99t2fuoDBiXMfYf-83">
          <mxGeometry x="-0.0041" relative="1" as="geometry">
            <mxPoint x="566" y="814.71" as="sourcePoint" />
            <mxPoint x="677" y="814.71" as="targetPoint" />
            <Array as="points">
              <mxPoint x="714" y="830" />
            </Array>
            <mxPoint as="offset" />
          </mxGeometry>
        </mxCell>
        <mxCell id="qMLqG99t2fuoDBiXMfYf-114" style="edgeStyle=none;curved=1;rounded=0;orthogonalLoop=1;jettySize=auto;html=1;fontSize=12;startSize=8;endSize=8;endArrow=none;endFill=0;dashed=1;" edge="1" parent="1" source="qMLqG99t2fuoDBiXMfYf-106" target="qMLqG99t2fuoDBiXMfYf-83">
          <mxGeometry relative="1" as="geometry">
            <mxPoint x="756.71" y="920" as="targetPoint" />
            <mxPoint x="756.71" y="790" as="sourcePoint" />
          </mxGeometry>
        </mxCell>
      </root>
    </mxGraphModel>
  </diagram>
</mxfile>
